<svg width="42" height="54" viewBox="0 0 42 54" fill="none" xmlns="http://www.w3.org/2000/svg">
<g filter="url(#filter0_d_108_775)">
<path d="M8 3C8 1.34315 9.34315 0 11 0H31.5816C33.2385 0 34.5816 1.34315 34.5816 3V37C34.5816 38.6569 33.2385 40 31.5816 40H11C9.34315 40 8 38.6569 8 37V3Z" fill="#D9D9D9"/>
<path d="M12 6C12 4.34315 13.3431 3 15 3H28C29.6569 3 31 4.34315 31 6V34C31 35.6569 29.6569 37 28 37H15C13.3431 37 12 35.6569 12 34V6Z" fill="#3E7E38"/>
<rect x="14" y="34" width="2" height="2" fill="#D9D9D9"/>
<circle cx="22" cy="35" r="1" fill="#D9D9D9"/>
<path d="M28.0234 35.1026L29.7388 34.1527L29.7792 35.9884L28.0234 35.1026Z" fill="#D9D9D9"/>
</g>
<path d="M8.988 50.28C8.676 51.152 8.304 51.588 7.872 51.588C7.44 51.588 7.076 51.396 6.78 51.012C6.676 50.876 6.552 50.704 6.408 50.496C6.272 50.28 6.112 50.032 5.928 49.752C5.744 49.456 5.58 49.204 5.436 48.996C5.3 48.788 5.18 48.616 5.076 48.48C4.596 47.832 4.136 47.508 3.696 47.508H2.4V50.544C2.4 50.76 2.46 50.908 2.58 50.988C2.732 51.108 3.016 51.168 3.432 51.168V51.516H0.612V51.168C1.012 51.168 1.284 51.108 1.428 50.988C1.564 50.876 1.632 50.728 1.632 50.544V44.196C1.632 43.956 1.564 43.78 1.428 43.668C1.268 43.548 0.996 43.488 0.612 43.488V43.152H3.432V43.488C3.216 43.488 3.04 43.504 2.904 43.536C2.768 43.56 2.66 43.604 2.58 43.668C2.508 43.724 2.46 43.796 2.436 43.884C2.412 43.972 2.4 44.076 2.4 44.196V47.136H3.696C4.368 47.136 4.884 46.6 5.244 45.528C5.492 44.76 5.756 44.188 6.036 43.812C6.38 43.332 6.868 43.092 7.5 43.092C7.772 43.092 8.004 43.164 8.196 43.308C8.396 43.444 8.496 43.612 8.496 43.812C8.496 44.22 8.312 44.424 7.944 44.424C7.752 44.424 7.584 44.348 7.44 44.196C7.304 44.06 7.208 43.98 7.152 43.956C6.992 43.892 6.856 43.892 6.744 43.956C6.472 44.084 6.224 44.376 6 44.832C5.904 45.04 5.748 45.4 5.532 45.912C5.244 46.648 4.948 47.12 4.644 47.328C4.964 47.48 5.28 47.716 5.592 48.036C5.72 48.172 5.868 48.348 6.036 48.564C6.212 48.78 6.404 49.04 6.612 49.344C6.932 49.816 7.232 50.2 7.512 50.496C7.696 50.68 7.888 50.772 8.088 50.772C8.272 50.772 8.508 50.56 8.796 50.136L8.988 50.28ZM17.3025 51.528H14.1585V51.168C14.5665 51.168 14.8745 51.1 15.0825 50.964C15.2665 50.844 15.3585 50.652 15.3585 50.388V46.164H13.1385V49.212C13.1385 50.02 12.9825 50.628 12.6705 51.036C12.3425 51.492 11.8185 51.72 11.0985 51.72C10.7545 51.72 10.4825 51.648 10.2825 51.504C10.0585 51.352 9.9465 51.132 9.9465 50.844C9.9465 50.644 10.0025 50.488 10.1145 50.376C10.2345 50.256 10.3825 50.196 10.5585 50.196C10.8945 50.196 11.0985 50.36 11.1705 50.688C11.2265 50.864 11.3025 50.984 11.3985 51.048C11.5105 51.136 11.6305 51.18 11.7585 51.18C12.0865 51.18 12.3425 50.968 12.5265 50.544C12.6625 50.208 12.7305 49.86 12.7305 49.5V46.752C12.7305 46.528 12.6425 46.368 12.4665 46.272C12.3065 46.2 12.0025 46.164 11.5545 46.164V45.768H17.3025V46.164C16.8465 46.164 16.5225 46.212 16.3305 46.308C16.1945 46.404 16.1265 46.592 16.1265 46.872V50.376C16.1265 50.64 16.1945 50.832 16.3305 50.952C16.5305 51.096 16.8545 51.168 17.3025 51.168V51.528ZM24.1388 46.188C23.8108 46.188 23.5788 46.232 23.4428 46.32C23.2748 46.424 23.1268 46.632 22.9988 46.944C22.9588 47.048 22.8868 47.228 22.7828 47.484C22.6788 47.732 22.5588 48.024 22.4228 48.36C22.2868 48.688 22.1428 49.04 21.9908 49.416C21.8388 49.784 21.6908 50.136 21.5468 50.472C21.4108 50.8 21.2908 51.092 21.1868 51.348C21.0828 51.604 21.0108 51.78 20.9708 51.876C20.7468 52.42 20.5188 52.784 20.2868 52.968V52.992C20.0868 53.144 19.8108 53.22 19.4588 53.22C19.2668 53.22 19.0788 53.156 18.8948 53.028C18.6948 52.884 18.5948 52.704 18.5948 52.488C18.5948 52.096 18.7628 51.9 19.0988 51.9C19.4588 51.9 19.6388 52.056 19.6388 52.368C19.6388 52.456 19.6748 52.524 19.7468 52.572C19.8028 52.604 19.8628 52.62 19.9268 52.62C20.0388 52.62 20.1588 52.54 20.2868 52.38C20.4148 52.228 20.5548 51.948 20.7068 51.54L20.9588 51C20.6228 50.248 20.2908 49.512 19.9628 48.792C19.6348 48.064 19.3028 47.324 18.9668 46.572C18.9108 46.428 18.8388 46.336 18.7508 46.296C18.6548 46.224 18.4548 46.188 18.1508 46.188V45.792H20.4308V46.188C20.0308 46.188 19.8028 46.228 19.7468 46.308C19.7228 46.348 19.7108 46.388 19.7108 46.428C19.7108 46.46 19.7188 46.5 19.7348 46.548C19.7668 46.604 19.7948 46.656 19.8188 46.704C19.8508 46.752 19.8828 46.804 19.9148 46.86C20.1468 47.388 20.3788 47.912 20.6108 48.432C20.8428 48.952 21.0748 49.476 21.3068 50.004C21.5148 49.5 21.7188 49 21.9188 48.504C22.1268 48 22.3348 47.496 22.5428 46.992C22.5748 46.928 22.6028 46.868 22.6268 46.812C22.6588 46.748 22.6908 46.684 22.7228 46.62C22.7548 46.548 22.7708 46.492 22.7708 46.452C22.7708 46.396 22.7548 46.348 22.7228 46.308C22.6428 46.228 22.4268 46.188 22.0748 46.188V45.792H24.1388V46.188ZM30.757 48.828C30.757 49.684 30.465 50.388 29.881 50.94C29.345 51.452 28.677 51.708 27.877 51.708C27.077 51.708 26.409 51.452 25.873 50.94C25.289 50.388 24.997 49.684 24.997 48.828C24.997 47.9 25.101 47.064 25.309 46.32C25.389 46.04 25.509 45.748 25.669 45.444C25.829 45.116 26.029 44.808 26.269 44.52C26.613 44.136 27.017 43.892 27.481 43.788C27.649 43.748 27.849 43.716 28.081 43.692C28.313 43.66 28.581 43.636 28.885 43.62C29.085 43.604 29.253 43.592 29.389 43.584C29.533 43.568 29.645 43.552 29.725 43.536C29.997 43.488 30.157 43.4 30.205 43.272C30.213 43.264 30.217 43.256 30.217 43.248C30.225 43.24 30.233 43.232 30.241 43.224C30.273 43.152 30.321 43.116 30.385 43.116C30.441 43.124 30.469 43.164 30.469 43.236V43.284C30.429 43.396 30.389 43.504 30.349 43.608C30.309 43.704 30.269 43.796 30.229 43.884C30.141 44.052 30.061 44.164 29.989 44.22C29.885 44.26 29.713 44.3 29.473 44.34C29.241 44.372 28.921 44.396 28.513 44.412C27.873 44.444 27.361 44.548 26.977 44.724C26.697 44.86 26.493 45.02 26.365 45.204C26.325 45.252 26.285 45.304 26.245 45.36C26.213 45.416 26.177 45.476 26.137 45.54C25.921 45.916 25.753 46.396 25.633 46.98C26.193 46.284 26.941 45.936 27.877 45.936C28.669 45.936 29.337 46.196 29.881 46.716C30.465 47.252 30.757 47.956 30.757 48.828ZM29.941 48.828C29.941 48.14 29.729 47.548 29.305 47.052C28.905 46.596 28.429 46.368 27.877 46.368C27.317 46.368 26.841 46.596 26.449 47.052C26.017 47.532 25.801 48.124 25.801 48.828C25.801 49.532 26.017 50.124 26.449 50.604C26.849 51.052 27.325 51.276 27.877 51.276C28.421 51.276 28.897 51.052 29.305 50.604C29.729 50.108 29.941 49.516 29.941 48.828ZM38.0797 49.716C38.0797 50.38 37.7997 50.86 37.2397 51.156C36.8157 51.396 36.2317 51.516 35.4877 51.516H31.9957V51.108C32.5077 51.108 32.8437 51.064 33.0037 50.976C33.1637 50.84 33.2437 50.664 33.2437 50.448V46.836C33.2437 46.596 33.1837 46.428 33.0637 46.332C32.9037 46.22 32.5597 46.164 32.0317 46.164V45.78H35.2477V46.152C34.7517 46.152 34.4157 46.2 34.2397 46.296C34.0797 46.392 33.9997 46.572 33.9997 46.836V47.916H35.5957C35.9557 47.916 36.2717 47.948 36.5437 48.012C36.8157 48.076 37.0557 48.164 37.2637 48.276C37.8077 48.58 38.0797 49.06 38.0797 49.716ZM37.3117 49.716C37.3117 49.276 37.1637 48.944 36.8677 48.72C36.6517 48.536 36.3837 48.428 36.0637 48.396C36.0237 48.388 35.9797 48.384 35.9317 48.384C35.8837 48.376 35.8397 48.372 35.7997 48.372H33.9997V50.52C33.9997 50.792 34.1157 50.96 34.3477 51.024C34.4677 51.064 34.6357 51.084 34.8517 51.084C34.8837 51.092 34.9317 51.096 34.9957 51.096H35.4517C35.6437 51.096 35.8317 51.084 36.0157 51.06C36.3597 51.028 36.6397 50.928 36.8557 50.76C37.1597 50.52 37.3117 50.172 37.3117 49.716ZM40.8277 51.516H38.1877V51.144C38.5237 51.144 38.7637 51.096 38.9077 51C39.0437 50.888 39.1117 50.732 39.1117 50.532V46.824C39.1117 46.568 39.0437 46.392 38.9077 46.296C38.7477 46.184 38.5077 46.128 38.1877 46.128V45.768H40.8277V46.128C40.6357 46.128 40.4797 46.144 40.3597 46.176C40.2397 46.2 40.1437 46.24 40.0717 46.296C39.9437 46.392 39.8797 46.568 39.8797 46.824V50.532C39.8797 50.764 39.9437 50.92 40.0717 51C40.2237 51.096 40.4757 51.144 40.8277 51.144V51.516Z" fill="#D9D9D9"/>
<defs>
<filter id="filter0_d_108_775" x="1" y="0" width="34.5816" height="48" filterUnits="userSpaceOnUse" color-interpolation-filters="sRGB">
<feFlood flood-opacity="0" result="BackgroundImageFix"/>
<feColorMatrix in="SourceAlpha" type="matrix" values="0 0 0 0 0 0 0 0 0 0 0 0 0 0 0 0 0 0 127 0" result="hardAlpha"/>
<feOffset dx="-3" dy="4"/>
<feGaussianBlur stdDeviation="2"/>
<feComposite in2="hardAlpha" operator="out"/>
<feColorMatrix type="matrix" values="0 0 0 0 0 0 0 0 0 0 0 0 0 0 0 0 0 0 0.25 0"/>
<feBlend mode="normal" in2="BackgroundImageFix" result="effect1_dropShadow_108_775"/>
<feBlend mode="normal" in="SourceGraphic" in2="effect1_dropShadow_108_775" result="shape"/>
</filter>
</defs>
</svg>
