<svg width="52" height="53" viewBox="0 0 52 53" fill="none" xmlns="http://www.w3.org/2000/svg">
<path d="M9.756 43.152C9.772 43.568 9.784 43.988 9.792 44.412C9.8 44.828 9.812 45.244 9.828 45.66C9.764 45.668 9.704 45.676 9.648 45.684C9.6 45.684 9.548 45.688 9.492 45.696C9.436 45.384 9.376 45.104 9.312 44.856C9.184 44.432 9.056 44.132 8.928 43.956C8.832 43.884 8.736 43.828 8.64 43.788C8.408 43.644 8.072 43.572 7.632 43.572H6.492C6.388 43.572 6.288 43.576 6.192 43.584C6.096 43.584 6.004 43.588 5.916 43.596C5.644 43.604 5.456 43.66 5.352 43.764C5.256 43.86 5.208 44.02 5.208 44.244V50.352C5.208 50.656 5.268 50.86 5.388 50.964C5.548 51.076 5.884 51.132 6.396 51.132V51.516H3.432V51.132C3.648 51.132 3.824 51.116 3.96 51.084C4.096 51.06 4.196 51.024 4.26 50.976C4.388 50.88 4.452 50.676 4.452 50.364V44.244C4.452 44.156 4.44 44.08 4.416 44.016C4.4 43.96 4.38 43.916 4.356 43.884C4.34 43.844 4.32 43.804 4.296 43.764C4.176 43.62 3.888 43.548 3.432 43.548V43.152H9.756ZM18.24 51.528H15.096V51.168C15.504 51.168 15.812 51.1 16.02 50.964C16.204 50.844 16.296 50.652 16.296 50.388V46.164H14.076V49.212C14.076 50.02 13.92 50.628 13.608 51.036C13.28 51.492 12.756 51.72 12.036 51.72C11.692 51.72 11.42 51.648 11.22 51.504C10.996 51.352 10.884 51.132 10.884 50.844C10.884 50.644 10.94 50.488 11.052 50.376C11.172 50.256 11.32 50.196 11.496 50.196C11.832 50.196 12.036 50.36 12.108 50.688C12.164 50.864 12.24 50.984 12.336 51.048C12.448 51.136 12.568 51.18 12.696 51.18C13.024 51.18 13.28 50.968 13.464 50.544C13.6 50.208 13.668 49.86 13.668 49.5V46.752C13.668 46.528 13.58 46.368 13.404 46.272C13.244 46.2 12.94 46.164 12.492 46.164V45.768H18.24V46.164C17.784 46.164 17.46 46.212 17.268 46.308C17.132 46.404 17.064 46.592 17.064 46.872V50.376C17.064 50.64 17.132 50.832 17.268 50.952C17.468 51.096 17.792 51.168 18.24 51.168V51.528ZM24.3563 51.084C24.0043 51.508 23.6923 51.72 23.4203 51.72C23.0683 51.72 22.8563 51.496 22.7843 51.048C22.2883 51.496 21.6883 51.72 20.9843 51.72C20.4323 51.72 20.0163 51.604 19.7363 51.372C19.5923 51.252 19.4803 51.108 19.4003 50.94C19.3203 50.764 19.2803 50.56 19.2803 50.328C19.2803 49.76 19.5803 49.276 20.1803 48.876C20.2283 48.844 20.2763 48.816 20.3243 48.792C20.3723 48.76 20.4243 48.728 20.4803 48.696C21.1123 48.384 21.8763 48.168 22.7723 48.048V47.196C22.7723 46.9 22.6763 46.648 22.4843 46.44C22.3963 46.344 22.2883 46.272 22.1603 46.224C22.0323 46.176 21.8923 46.144 21.7402 46.128H21.5723C21.5083 46.128 21.4563 46.132 21.4163 46.14C21.1923 46.164 21.0043 46.228 20.8523 46.332C20.5643 46.492 20.4202 46.672 20.4202 46.872V46.932C20.4202 47.324 20.2483 47.52 19.9043 47.52L19.8923 47.508C19.5883 47.484 19.4363 47.308 19.4363 46.98C19.4363 46.628 19.6803 46.332 20.1683 46.092V46.056C20.6483 45.832 21.1843 45.72 21.7763 45.72C22.2643 45.72 22.6723 45.852 23.0003 46.116C23.3363 46.428 23.5043 46.852 23.5043 47.388V50.652C23.5043 50.78 23.5163 50.88 23.5403 50.952C23.5643 51.04 23.5963 51.104 23.6363 51.144C23.6523 51.16 23.6723 51.168 23.6963 51.168C23.8163 51.168 23.9883 51.08 24.2123 50.904L24.3563 51.084ZM22.7723 48.492C22.0843 48.564 21.4643 48.76 20.9123 49.08C20.3683 49.392 20.0963 49.804 20.0963 50.316C20.0963 50.572 20.1963 50.78 20.3963 50.94C20.6043 51.092 20.8643 51.168 21.1763 51.168C21.4003 51.168 21.5963 51.14 21.7643 51.084C22.1083 51.004 22.4443 50.824 22.7723 50.544V48.492ZM31.2828 49.86C31.2828 50.468 31.0308 50.908 30.5268 51.18C30.1348 51.404 29.6108 51.516 28.9548 51.516H24.9948V51.144C25.4508 51.144 25.7188 51.104 25.7988 51.024C25.9508 50.944 26.0268 50.804 26.0268 50.604V46.752C26.0268 46.56 25.9508 46.416 25.7988 46.32C25.6468 46.216 25.3788 46.164 24.9948 46.164V45.792H28.4748C28.5228 45.792 28.5708 45.792 28.6188 45.792C28.6668 45.792 28.7108 45.796 28.7508 45.804C30.1828 45.828 30.8988 46.268 30.8988 47.124C30.8988 47.46 30.7548 47.736 30.4668 47.952C30.1868 48.168 29.8188 48.308 29.3628 48.372C30.6428 48.516 31.2828 49.012 31.2828 49.86ZM30.4788 49.848C30.4788 49.464 30.3108 49.156 29.9748 48.924C29.6788 48.724 29.2868 48.624 28.7988 48.624H26.7948V50.58C26.7948 50.804 26.8668 50.952 27.0108 51.024C27.1148 51.096 27.3268 51.132 27.6468 51.132H28.8588C29.1308 51.132 29.3668 51.104 29.5668 51.048C29.7668 50.992 29.9348 50.916 30.0708 50.82C30.3428 50.596 30.4788 50.272 30.4788 49.848ZM30.1308 47.1C30.1308 46.74 29.9588 46.488 29.6148 46.344C29.3668 46.232 29.0628 46.176 28.7028 46.176H27.8028C27.6268 46.176 27.4748 46.192 27.3468 46.224C27.2188 46.248 27.1108 46.28 27.0228 46.32C26.9828 46.336 26.9468 46.36 26.9148 46.392C26.8908 46.416 26.8708 46.44 26.8548 46.464C26.8148 46.56 26.7948 46.66 26.7948 46.764V48.18H28.7628C29.1708 48.18 29.4988 48.088 29.7468 47.904C30.0028 47.696 30.1308 47.428 30.1308 47.1ZM38.6598 51.528H35.9118V51.156C36.2558 51.156 36.5078 51.1 36.6678 50.988C36.8038 50.876 36.8718 50.704 36.8718 50.472V48.72H33.8238V50.472C33.8238 50.728 33.8798 50.9 33.9918 50.988C34.1518 51.1 34.4238 51.156 34.8078 51.156V51.528H32.0718V51.156C32.4878 51.156 32.7718 51.092 32.9238 50.964C33.0198 50.868 33.0678 50.704 33.0678 50.472V46.764C33.0678 46.54 33.0158 46.388 32.9118 46.308C32.7598 46.196 32.4838 46.14 32.0838 46.14V45.768H34.7598V46.14C34.3838 46.14 34.1318 46.192 34.0038 46.296C33.8838 46.408 33.8238 46.564 33.8238 46.764V48.288H36.8718V46.764C36.8718 46.564 36.8038 46.408 36.6678 46.296C36.5158 46.192 36.2638 46.14 35.9118 46.14V45.768H38.5878V46.14C38.2118 46.14 37.9478 46.192 37.7958 46.296C37.6918 46.392 37.6398 46.548 37.6398 46.764V50.472C37.6398 50.736 37.6918 50.908 37.7958 50.988C37.9558 51.1 38.2438 51.156 38.6598 51.156V51.528ZM44.7469 51.084C44.3949 51.508 44.0829 51.72 43.8109 51.72C43.4589 51.72 43.2469 51.496 43.1749 51.048C42.6789 51.496 42.0789 51.72 41.3749 51.72C40.8229 51.72 40.4069 51.604 40.1269 51.372C39.9829 51.252 39.8709 51.108 39.7909 50.94C39.7109 50.764 39.6709 50.56 39.6709 50.328C39.6709 49.76 39.9709 49.276 40.5709 48.876C40.6189 48.844 40.6669 48.816 40.7149 48.792C40.7629 48.76 40.8149 48.728 40.8709 48.696C41.5029 48.384 42.2669 48.168 43.1629 48.048V47.196C43.1629 46.9 43.0669 46.648 42.8749 46.44C42.7869 46.344 42.6789 46.272 42.5509 46.224C42.4229 46.176 42.2829 46.144 42.1309 46.128H41.9629C41.8989 46.128 41.8469 46.132 41.8069 46.14C41.5829 46.164 41.3949 46.228 41.2429 46.332C40.9549 46.492 40.8109 46.672 40.8109 46.872V46.932C40.8109 47.324 40.6389 47.52 40.2949 47.52L40.2829 47.508C39.9789 47.484 39.8269 47.308 39.8269 46.98C39.8269 46.628 40.0709 46.332 40.5589 46.092V46.056C41.0389 45.832 41.5749 45.72 42.1669 45.72C42.6549 45.72 43.0629 45.852 43.3909 46.116C43.7269 46.428 43.8949 46.852 43.8949 47.388V50.652C43.8949 50.78 43.9069 50.88 43.9309 50.952C43.9549 51.04 43.9869 51.104 44.0269 51.144C44.0429 51.16 44.0629 51.168 44.0869 51.168C44.2069 51.168 44.3789 51.08 44.6029 50.904L44.7469 51.084ZM43.1629 48.492C42.4749 48.564 41.8549 48.76 41.3029 49.08C40.7589 49.392 40.4869 49.804 40.4869 50.316C40.4869 50.572 40.5869 50.78 40.7869 50.94C40.9949 51.092 41.2549 51.168 41.5669 51.168C41.7909 51.168 41.9869 51.14 42.1549 51.084C42.4989 51.004 42.8349 50.824 43.1629 50.544V48.492ZM50.9894 51.516H48.4454V51.18C48.7814 51.18 49.0294 51.124 49.1894 51.012C49.3094 50.94 49.3694 50.768 49.3694 50.496V49.104H48.3974C48.2534 49.312 48.1094 49.516 47.9654 49.716C47.8214 49.916 47.6734 50.116 47.5214 50.316L46.6334 51.516H45.3254V51.18C45.6134 51.18 45.8334 51.144 45.9854 51.072C46.1374 51 46.2774 50.888 46.4054 50.736C46.6134 50.456 46.8174 50.176 47.0174 49.896C47.2174 49.616 47.4214 49.336 47.6294 49.056C47.0934 48.984 46.6934 48.812 46.4294 48.54C46.1654 48.268 46.0334 47.9 46.0334 47.436V47.352C46.0334 47.008 46.1214 46.712 46.2974 46.464C46.6574 46.016 47.2774 45.792 48.1574 45.792H50.9894V46.176C50.5734 46.176 50.3014 46.252 50.1734 46.404C50.1014 46.476 50.0654 46.576 50.0654 46.704C50.0574 46.744 50.0534 46.784 50.0534 46.824C50.0534 46.856 50.0534 46.892 50.0534 46.932V50.496C50.0534 50.76 50.1134 50.932 50.2334 51.012C50.3934 51.124 50.6454 51.18 50.9894 51.18V51.516ZM49.3694 48.684V46.788C49.3694 46.524 49.2814 46.352 49.1054 46.272C49.0094 46.232 48.9014 46.212 48.7814 46.212H48.1094C48.0454 46.212 47.9854 46.216 47.9294 46.224C47.8734 46.224 47.8174 46.228 47.7614 46.236C47.5534 46.26 47.3614 46.344 47.1854 46.488C46.8734 46.728 46.7174 47.048 46.7174 47.448C46.7174 47.928 46.8854 48.268 47.2214 48.468C47.4454 48.612 47.7374 48.684 48.0974 48.684H49.3694Z" fill="#D9D9D9"/>
<path d="M3 52.2H51.3254V52.8H3V52.2Z" fill="#D9D9D9"/>
<g filter="url(#filter0_d_110_780)">
<path d="M7 8.22119C7 6.56434 8.34315 5.22119 10 5.22119H23.7078V37.5926H10C8.34314 37.5926 7 36.2494 7 34.5926V8.22119Z" fill="#D9D9D9"/>
<path d="M9.43652 10.3097C9.43652 8.65284 10.7797 7.30969 12.4365 7.30969H23.7078V35.156H12.4365C10.7797 35.156 9.43652 33.8129 9.43652 32.156V10.3097Z" fill="#3E7E38"/>
<ellipse cx="35.5425" cy="5.39523" rx="11.8347" ry="5.39523" fill="#D9D9D9"/>
<path fill-rule="evenodd" clip-rule="evenodd" d="M47.3772 5.22119H23.7078V37.5926H23.8609C24.7736 35.0266 29.6562 33.0675 35.5425 33.0675C41.4288 33.0675 46.3113 35.0266 47.224 37.5926H47.3772V5.22119Z" fill="#D9D9D9"/>
<ellipse cx="35.5425" cy="10.6164" rx="11.8347" ry="5.39523" fill="#3E7E38"/>
<ellipse cx="35.5425" cy="12.0087" rx="11.8347" ry="5.39523" fill="#D9D9D9"/>
<ellipse cx="35.5425" cy="13.4011" rx="11.8347" ry="5.39523" fill="#3E7E38"/>
<ellipse cx="35.5425" cy="14.7934" rx="11.8347" ry="5.39523" fill="#D9D9D9"/>
<ellipse cx="35.5425" cy="22.7992" rx="11.8347" ry="5.39523" fill="#3E7E38"/>
<ellipse cx="35.5425" cy="24.1915" rx="11.8347" ry="5.39523" fill="#D9D9D9"/>
<ellipse cx="35.5425" cy="25.5838" rx="11.8347" ry="5.39523" fill="#3E7E38"/>
<ellipse cx="35.5425" cy="26.9762" rx="11.8347" ry="5.39523" fill="#D9D9D9"/>
<rect x="23.7078" y="7.30969" width="1.39232" height="20.8848" fill="#D9D9D9"/>
<rect x="45.9849" y="8.00583" width="1.39232" height="20.8848" fill="#D9D9D9"/>
<rect x="13.2654" y="33.7637" width="1.04424" height="1.04424" fill="#D9D9D9"/>
<circle cx="17.9645" cy="34.2858" r="0.522119" fill="#D9D9D9"/>
<path d="M21.6298 34.3068L22.4037 33.8389L22.422 34.7431L21.6298 34.3068Z" fill="#D9D9D9"/>
</g>
<defs>
<filter id="filter0_d_110_780" x="0" y="0" width="48.3772" height="45.5926" filterUnits="userSpaceOnUse" color-interpolation-filters="sRGB">
<feFlood flood-opacity="0" result="BackgroundImageFix"/>
<feColorMatrix in="SourceAlpha" type="matrix" values="0 0 0 0 0 0 0 0 0 0 0 0 0 0 0 0 0 0 127 0" result="hardAlpha"/>
<feOffset dx="-3" dy="4"/>
<feGaussianBlur stdDeviation="2"/>
<feComposite in2="hardAlpha" operator="out"/>
<feColorMatrix type="matrix" values="0 0 0 0 0 0 0 0 0 0 0 0 0 0 0 0 0 0 0.25 0"/>
<feBlend mode="normal" in2="BackgroundImageFix" result="effect1_dropShadow_110_780"/>
<feBlend mode="normal" in="SourceGraphic" in2="effect1_dropShadow_110_780" result="shape"/>
</filter>
</defs>
</svg>
