<svg width="66" height="51" viewBox="0 0 66 51" fill="none" xmlns="http://www.w3.org/2000/svg">
<ellipse cx="22.1323" cy="5.39486" rx="10.1323" ry="5.39486" fill="#D9D9D9"/>
<g filter="url(#filter0_d_108_774)">
<path fill-rule="evenodd" clip-rule="evenodd" d="M32.2645 5.22083H12V37.59H12.1311C12.9125 35.0242 17.0927 33.0653 22.1323 33.0653C27.1718 33.0653 31.352 35.0242 32.1334 37.59H32.2645V5.22083Z" fill="#D9D9D9"/>
</g>
<ellipse cx="22.1323" cy="10.6157" rx="10.1323" ry="5.39486" fill="#3E7E38"/>
<ellipse cx="22.1323" cy="12.0079" rx="10.1323" ry="5.39486" fill="#D9D9D9"/>
<ellipse cx="22.1323" cy="13.4001" rx="10.1323" ry="5.39486" fill="#3E7E38"/>
<ellipse cx="22.1323" cy="14.7924" rx="10.1323" ry="5.39486" fill="#D9D9D9"/>
<ellipse cx="22.1323" cy="22.7976" rx="10.1323" ry="5.39486" fill="#3E7E38"/>
<ellipse cx="22.1323" cy="24.1899" rx="10.1323" ry="5.39486" fill="#D9D9D9"/>
<ellipse cx="22.1323" cy="25.5821" rx="10.1323" ry="5.39486" fill="#3E7E38"/>
<ellipse cx="22.1323" cy="26.9743" rx="10.1323" ry="5.39486" fill="#D9D9D9"/>
<rect x="12" y="7.30917" width="1.19203" height="20.8833" fill="#D9D9D9"/>
<rect x="31.0725" y="8.00528" width="1.19203" height="20.8833" fill="#D9D9D9"/>
<ellipse cx="42.2478" cy="5.39486" rx="10.1323" ry="5.39486" fill="#D9D9D9"/>
<g filter="url(#filter1_d_108_774)">
<path fill-rule="evenodd" clip-rule="evenodd" d="M52.38 5.22083H32.1155V37.59H32.2466C33.028 35.0242 37.2082 33.0653 42.2478 33.0653C47.2873 33.0653 51.4675 35.0242 52.2489 37.59H52.38V5.22083Z" fill="#D9D9D9"/>
</g>
<ellipse cx="42.2478" cy="10.6157" rx="10.1323" ry="5.39486" fill="#3E7E38"/>
<ellipse cx="42.2478" cy="12.0079" rx="10.1323" ry="5.39486" fill="#D9D9D9"/>
<ellipse cx="42.2478" cy="13.4001" rx="10.1323" ry="5.39486" fill="#3E7E38"/>
<ellipse cx="42.2478" cy="14.7924" rx="10.1323" ry="5.39486" fill="#D9D9D9"/>
<ellipse cx="42.2478" cy="22.7976" rx="10.1323" ry="5.39486" fill="#3E7E38"/>
<ellipse cx="42.2478" cy="24.1899" rx="10.1323" ry="5.39486" fill="#D9D9D9"/>
<ellipse cx="42.2478" cy="25.5821" rx="10.1323" ry="5.39486" fill="#3E7E38"/>
<ellipse cx="42.2478" cy="26.9743" rx="10.1323" ry="5.39486" fill="#D9D9D9"/>
<rect x="32.1155" y="7.30917" width="1.19203" height="20.8833" fill="#D9D9D9"/>
<rect x="51.188" y="8.00528" width="1.19203" height="20.8833" fill="#D9D9D9"/>
<path d="M10.368 49.516H7.524V49.132C7.98 49.132 8.284 49.068 8.436 48.94C8.564 48.82 8.628 48.644 8.628 48.412V41.92C8.1 43.216 7.572 44.496 7.044 45.76C6.516 47.016 5.988 48.292 5.46 49.588H5.088C4.584 48.316 4.08 47.056 3.576 45.808C3.072 44.552 2.564 43.284 2.052 42.004V48.412C2.052 48.684 2.116 48.872 2.244 48.976C2.404 49.08 2.684 49.132 3.084 49.132V49.516H0.624V49.132C1.008 49.132 1.26 49.088 1.38 49C1.508 48.904 1.572 48.756 1.572 48.556C1.572 48.54 1.572 48.524 1.572 48.508C1.58 48.484 1.584 48.452 1.584 48.412V42.196C1.584 41.964 1.52 41.8 1.392 41.704C1.264 41.6 1.012 41.548 0.636 41.548V41.152H2.592C3.072 42.352 3.548 43.54 4.02 44.716C4.492 45.892 4.968 47.084 5.448 48.292C5.928 47.084 6.4 45.892 6.864 44.716C7.336 43.54 7.812 42.352 8.292 41.152H10.368V41.548C9.912 41.548 9.632 41.6 9.528 41.704C9.432 41.816 9.384 41.968 9.384 42.16V48.412C9.384 48.652 9.44 48.828 9.552 48.94C9.704 49.068 9.976 49.132 10.368 49.132V49.516ZM16.4773 46.672C16.4773 47.552 16.2413 48.276 15.7693 48.844C15.2973 49.412 14.6933 49.696 13.9573 49.696C13.2213 49.696 12.6173 49.412 12.1453 48.844C11.6733 48.276 11.4373 47.552 11.4373 46.672C11.4373 45.776 11.6733 45.044 12.1453 44.476C12.6093 43.924 13.2133 43.648 13.9573 43.648C14.6933 43.648 15.2973 43.924 15.7693 44.476C16.2413 45.044 16.4773 45.776 16.4773 46.672ZM15.6853 46.672C15.6853 45.92 15.5253 45.3 15.2053 44.812C14.8773 44.316 14.4613 44.068 13.9573 44.068C13.4453 44.068 13.0253 44.316 12.6973 44.812C12.3853 45.292 12.2293 45.912 12.2293 46.672C12.2293 47.416 12.3893 48.032 12.7093 48.52C13.0373 49.016 13.4533 49.264 13.9573 49.264C14.4693 49.264 14.8853 49.02 15.2053 48.532C15.3653 48.276 15.4853 48 15.5653 47.704C15.6453 47.4 15.6853 47.056 15.6853 46.672ZM24.1453 49.516H21.3013V49.156C21.7333 49.156 22.0293 49.064 22.1893 48.88C22.2293 48.816 22.2573 48.752 22.2733 48.688C22.2973 48.616 22.3093 48.524 22.3093 48.412V45.448C21.7973 45.928 21.2893 46.408 20.7853 46.888C20.2813 47.36 19.7733 47.836 19.2613 48.316V48.496C19.2613 48.648 19.2933 48.776 19.3573 48.88C19.4933 49.064 19.7933 49.156 20.2573 49.156V49.516H17.4133V49.156C17.7893 49.156 18.0693 49.1 18.2533 48.988C18.4213 48.884 18.5053 48.692 18.5053 48.412V44.824C18.5053 44.568 18.4253 44.392 18.2653 44.296C18.1053 44.192 17.8213 44.14 17.4133 44.14V43.78H20.2573V44.14C19.9213 44.14 19.6653 44.192 19.4893 44.296C19.3373 44.392 19.2613 44.568 19.2613 44.824V47.776C19.7733 47.296 20.2813 46.816 20.7853 46.336C21.2893 45.856 21.7973 45.376 22.3093 44.896V44.824C22.3093 44.568 22.2253 44.392 22.0573 44.296C21.8733 44.192 21.6213 44.14 21.3013 44.14V43.78H24.1453V44.14C23.8813 44.14 23.6693 44.164 23.5093 44.212C23.3573 44.252 23.2453 44.316 23.1733 44.404C23.1093 44.492 23.0773 44.632 23.0773 44.824V48.412C23.0773 48.7 23.1533 48.896 23.3053 49C23.4573 49.104 23.7373 49.156 24.1453 49.156V49.516ZM35.3764 49.528H32.4004V49.156C32.7924 49.156 33.0604 49.096 33.2044 48.976C33.3644 48.832 33.4444 48.628 33.4444 48.364V44.164H30.4084V48.364C30.4084 48.652 30.4884 48.864 30.6484 49C30.7604 49.104 31.0244 49.156 31.4404 49.156V49.528H28.4644V49.156C28.9204 49.156 29.2444 49.084 29.4364 48.94C29.5804 48.82 29.6524 48.624 29.6524 48.352V44.872C29.6524 44.592 29.5804 44.404 29.4364 44.308C29.2524 44.212 28.9284 44.164 28.4644 44.164V43.768H35.3764V44.164C34.9204 44.164 34.5964 44.212 34.4044 44.308C34.2684 44.404 34.2004 44.592 34.2004 44.872V48.352C34.2004 48.624 34.2684 48.82 34.4044 48.94C34.6044 49.084 34.9284 49.156 35.3764 49.156V49.528ZM41.4617 46.672C41.4617 47.552 41.2257 48.276 40.7537 48.844C40.2817 49.412 39.6777 49.696 38.9417 49.696C38.2057 49.696 37.6017 49.412 37.1297 48.844C36.6577 48.276 36.4217 47.552 36.4217 46.672C36.4217 45.776 36.6577 45.044 37.1297 44.476C37.5937 43.924 38.1977 43.648 38.9417 43.648C39.6777 43.648 40.2817 43.924 40.7537 44.476C41.2257 45.044 41.4617 45.776 41.4617 46.672ZM40.6697 46.672C40.6697 45.92 40.5097 45.3 40.1897 44.812C39.8617 44.316 39.4457 44.068 38.9417 44.068C38.4297 44.068 38.0097 44.316 37.6817 44.812C37.3697 45.292 37.2137 45.912 37.2137 46.672C37.2137 47.416 37.3737 48.032 37.6937 48.52C38.0217 49.016 38.4377 49.264 38.9417 49.264C39.4537 49.264 39.8697 49.02 40.1897 48.532C40.3497 48.276 40.4697 48 40.5497 47.704C40.6297 47.4 40.6697 47.056 40.6697 46.672ZM49.6697 49.528H46.5257V49.168C46.9337 49.168 47.2417 49.1 47.4497 48.964C47.6337 48.844 47.7257 48.652 47.7257 48.388V44.164H45.5057V47.212C45.5057 48.02 45.3497 48.628 45.0377 49.036C44.7097 49.492 44.1857 49.72 43.4657 49.72C43.1217 49.72 42.8497 49.648 42.6497 49.504C42.4257 49.352 42.3137 49.132 42.3137 48.844C42.3137 48.644 42.3697 48.488 42.4817 48.376C42.6017 48.256 42.7497 48.196 42.9257 48.196C43.2617 48.196 43.4657 48.36 43.5377 48.688C43.5937 48.864 43.6697 48.984 43.7657 49.048C43.8777 49.136 43.9977 49.18 44.1257 49.18C44.4537 49.18 44.7097 48.968 44.8937 48.544C45.0297 48.208 45.0977 47.86 45.0977 47.5V44.752C45.0977 44.528 45.0097 44.368 44.8337 44.272C44.6737 44.2 44.3697 44.164 43.9217 44.164V43.768H49.6697V44.164C49.2137 44.164 48.8897 44.212 48.6977 44.308C48.5617 44.404 48.4937 44.592 48.4937 44.872V48.376C48.4937 48.64 48.5617 48.832 48.6977 48.952C48.8977 49.096 49.2217 49.168 49.6697 49.168V49.528ZM56.6859 48.352L56.8779 48.496C56.8219 48.656 56.7619 48.792 56.6979 48.904C56.6339 49.016 56.5699 49.116 56.5059 49.204C56.3059 49.452 56.0739 49.576 55.8099 49.576C55.7939 49.576 55.7779 49.576 55.7619 49.576C55.7459 49.584 55.7299 49.588 55.7139 49.588C55.6419 49.588 55.5699 49.576 55.4979 49.552C55.2899 49.488 55.1299 49.36 55.0179 49.168C54.9779 49.104 54.9139 49.004 54.8259 48.868C54.7459 48.732 54.6499 48.56 54.5379 48.352C54.2899 47.936 54.0499 47.584 53.8179 47.296C53.7459 47.216 53.6819 47.152 53.6259 47.104C53.4979 46.96 53.3779 46.88 53.2659 46.864C53.2339 46.856 53.1899 46.852 53.1339 46.852H52.4379V48.544C52.4379 48.776 52.4979 48.928 52.6179 49C52.7699 49.104 53.0899 49.156 53.5779 49.156V49.516H50.5419V49.156C51.0299 49.156 51.3379 49.104 51.4659 49C51.6019 48.904 51.6699 48.752 51.6699 48.544V44.824C51.6699 44.568 51.6019 44.392 51.4659 44.296C51.3059 44.184 50.9979 44.128 50.5419 44.128V43.78H53.5779V44.128C53.0819 44.128 52.7659 44.184 52.6299 44.296C52.5019 44.4 52.4379 44.576 52.4379 44.824V46.432H53.0139C53.0619 46.432 53.1059 46.432 53.1459 46.432C53.1939 46.424 53.2419 46.42 53.2899 46.42C53.5459 46.396 53.7379 46.272 53.8659 46.048C53.8979 46.008 53.9299 45.964 53.9619 45.916C54.0019 45.868 54.0419 45.808 54.0819 45.736C54.1059 45.68 54.1259 45.628 54.1419 45.58C54.1659 45.524 54.1899 45.464 54.2139 45.4C54.3339 45.144 54.4459 44.924 54.5499 44.74C54.6539 44.556 54.7499 44.412 54.8379 44.308C54.8379 44.3 54.8379 44.292 54.8379 44.284C54.8459 44.276 54.8499 44.268 54.8499 44.26C55.0739 43.988 55.3259 43.82 55.6059 43.756C55.6299 43.748 55.6619 43.744 55.7019 43.744H55.9059C56.3859 43.768 56.6259 43.976 56.6259 44.368C56.6259 44.48 56.5979 44.58 56.5419 44.668C56.4859 44.756 56.4179 44.832 56.3379 44.896C56.2499 44.976 56.1659 45.016 56.0859 45.016C55.9099 45.016 55.7539 44.948 55.6179 44.812C55.5299 44.724 55.4299 44.676 55.3179 44.668C55.2059 44.668 55.0939 44.724 54.9819 44.836C54.8859 44.932 54.7859 45.092 54.6819 45.316C54.6659 45.364 54.6459 45.412 54.6219 45.46C54.5979 45.5 54.5779 45.544 54.5619 45.592L54.4539 45.808C54.4379 45.84 54.4219 45.872 54.4059 45.904C54.3899 45.928 54.3739 45.956 54.3579 45.988C54.2059 46.252 54.0139 46.464 53.7819 46.624C54.1179 46.856 54.4979 47.284 54.9219 47.908L55.1379 48.196C55.1779 48.26 55.2259 48.336 55.2819 48.424C55.3379 48.504 55.4099 48.604 55.4979 48.724C55.6339 48.908 55.7739 49 55.9179 49C56.1739 49 56.4299 48.784 56.6859 48.352ZM64.5281 49.516H61.6841V49.156C62.1161 49.156 62.4121 49.064 62.5721 48.88C62.6121 48.816 62.6401 48.752 62.6561 48.688C62.6801 48.616 62.6921 48.524 62.6921 48.412V45.448C62.1801 45.928 61.6721 46.408 61.1681 46.888C60.6641 47.36 60.1561 47.836 59.6441 48.316V48.496C59.6441 48.648 59.6761 48.776 59.7401 48.88C59.8761 49.064 60.1761 49.156 60.6401 49.156V49.516H57.7961V49.156C58.1721 49.156 58.4521 49.1 58.6361 48.988C58.8041 48.884 58.8881 48.692 58.8881 48.412V44.824C58.8881 44.568 58.8081 44.392 58.6481 44.296C58.4881 44.192 58.2041 44.14 57.7961 44.14V43.78H60.6401V44.14C60.3041 44.14 60.0481 44.192 59.8721 44.296C59.7201 44.392 59.6441 44.568 59.6441 44.824V47.776C60.1561 47.296 60.6641 46.816 61.1681 46.336C61.6721 45.856 62.1801 45.376 62.6921 44.896V44.824C62.6921 44.568 62.6081 44.392 62.4401 44.296C62.2561 44.192 62.0041 44.14 61.6841 44.14V43.78H64.5281V44.14C64.2641 44.14 64.0521 44.164 63.8921 44.212C63.7401 44.252 63.6281 44.316 63.5561 44.404C63.4921 44.492 63.4601 44.632 63.4601 44.824V48.412C63.4601 48.7 63.5361 48.896 63.6881 49C63.8401 49.104 64.1201 49.156 64.5281 49.156V49.516Z" fill="#D9D9D9"/>
<defs>
<filter id="filter0_d_108_774" x="5" y="5.22083" width="28.2645" height="40.3692" filterUnits="userSpaceOnUse" color-interpolation-filters="sRGB">
<feFlood flood-opacity="0" result="BackgroundImageFix"/>
<feColorMatrix in="SourceAlpha" type="matrix" values="0 0 0 0 0 0 0 0 0 0 0 0 0 0 0 0 0 0 127 0" result="hardAlpha"/>
<feOffset dx="-3" dy="4"/>
<feGaussianBlur stdDeviation="2"/>
<feComposite in2="hardAlpha" operator="out"/>
<feColorMatrix type="matrix" values="0 0 0 0 0 0 0 0 0 0 0 0 0 0 0 0 0 0 0.25 0"/>
<feBlend mode="normal" in2="BackgroundImageFix" result="effect1_dropShadow_108_774"/>
<feBlend mode="normal" in="SourceGraphic" in2="effect1_dropShadow_108_774" result="shape"/>
</filter>
<filter id="filter1_d_108_774" x="25.1155" y="5.22083" width="28.2645" height="40.3692" filterUnits="userSpaceOnUse" color-interpolation-filters="sRGB">
<feFlood flood-opacity="0" result="BackgroundImageFix"/>
<feColorMatrix in="SourceAlpha" type="matrix" values="0 0 0 0 0 0 0 0 0 0 0 0 0 0 0 0 0 0 127 0" result="hardAlpha"/>
<feOffset dx="-3" dy="4"/>
<feGaussianBlur stdDeviation="2"/>
<feComposite in2="hardAlpha" operator="out"/>
<feColorMatrix type="matrix" values="0 0 0 0 0 0 0 0 0 0 0 0 0 0 0 0 0 0 0.25 0"/>
<feBlend mode="normal" in2="BackgroundImageFix" result="effect1_dropShadow_108_774"/>
<feBlend mode="normal" in="SourceGraphic" in2="effect1_dropShadow_108_774" result="shape"/>
</filter>
</defs>
</svg>
