<svg width="54" height="54" viewBox="0 0 54 54" fill="none" xmlns="http://www.w3.org/2000/svg">
<g filter="url(#filter0_d_20_167)">
<circle cx="27.19" cy="20.19" r="20.19" fill="#3E7E38"/>
<path d="M25.4836 0.0348854C21.2561 0.421677 17.4616 1.99429 14.151 4.73746C13.5296 5.25149 12.2461 6.53401 11.7317 7.15491C9.14937 10.2696 7.65703 13.6642 7.11205 17.6899C7.01528 18.4177 7 18.7536 7 20.1837C7 22.0108 7.06621 22.7335 7.382 24.2806C8.0645 27.6091 9.66889 30.851 11.9099 33.4161C13.5907 35.3399 15.6077 36.9328 17.8232 38.0932C20.6246 39.5539 23.5023 40.2969 26.6805 40.3732C30.1083 40.4547 33.0828 39.8032 36.1285 38.3019C41.8534 35.4773 45.9331 30.1029 47.074 23.8786C47.3389 22.4637 47.3847 21.8937 47.3796 20.1583C47.3796 18.3617 47.3083 17.6136 47.0027 16.1071C45.7447 9.97442 41.6242 4.69675 35.9503 1.97393C33.8875 0.981506 31.9266 0.406406 29.5327 0.101044C28.8248 0.00943756 26.217 -0.0363693 25.4836 0.0348854ZM29.4563 4.20308C33.0267 4.74255 36.098 6.27954 38.5988 8.78351C41.1404 11.318 42.6989 14.4734 43.2184 18.1021C43.3457 19.0182 43.3457 21.3288 43.2184 22.2449C42.8211 25.0593 41.7363 27.6956 40.0809 29.879C39.7804 30.2759 39.154 31.019 38.991 31.1666L38.8687 31.2836L38.8433 30.5813C38.8127 29.7772 38.7261 29.4413 38.3849 28.8713C38.1353 28.4387 37.5649 27.8737 37.0352 27.5175C36.5564 27.1918 35.3798 26.6167 34.351 26.1892C33.0115 25.6395 30.857 24.5809 30.638 24.3672C30.3069 24.0414 30.205 23.7666 30.1185 22.9167L30.037 22.1635L30.419 21.7563C31.2135 20.9115 31.677 20.0361 31.9011 18.947C31.9215 18.8401 31.9571 18.8096 32.0692 18.8096C32.2933 18.8045 32.6244 18.6264 32.7109 18.4584C32.8332 18.2294 33.1439 16.2293 33.0929 16.0308C33.0369 15.8323 32.9096 15.7152 32.6549 15.6287C32.548 15.5931 32.4614 15.5422 32.4614 15.5168C32.4614 15.4964 32.497 15.1707 32.5327 14.7941C32.6549 13.5777 32.548 12.7125 32.1558 11.8626C31.8604 11.2213 31.4682 10.6768 30.9181 10.1526C29.2781 8.57485 27.5005 8.20332 26.1559 9.15504C26.0336 9.23647 25.9369 9.25173 25.5956 9.24664C24.2408 9.21611 22.8351 10.1576 22.1475 11.5521C22.0354 11.7761 21.8724 12.2392 21.7807 12.5751C21.633 13.1451 21.6228 13.2469 21.6178 14.1019C21.6127 14.6058 21.633 15.1452 21.6534 15.2979L21.6992 15.5778L21.5159 15.644C21.2714 15.7356 21.1186 15.9595 21.1186 16.2293C21.1186 16.499 21.4242 18.3363 21.4853 18.4584C21.5719 18.6111 21.8215 18.7587 22.0558 18.7892L22.285 18.8198L22.4174 19.3134C22.667 20.1939 23.217 21.1558 23.976 22.0159L24.1746 22.2449L24.1033 22.9574C23.9709 24.2145 23.8282 24.3773 22.1678 25.1662C21.5566 25.4563 20.6755 25.8533 20.212 26.0467C18.6891 26.6777 18.1849 26.9119 17.6959 27.2019C16.4073 27.9654 15.6892 28.8051 15.4498 29.8077C15.409 29.9858 15.3734 30.3624 15.3734 30.6424L15.3683 31.1513L15.1595 30.9223C14.426 30.1232 13.5194 28.8255 12.9439 27.7669C12.0831 26.1739 11.4923 24.3824 11.1918 22.423C11.0899 21.7919 11.0746 21.4764 11.0746 20.2346C11.0695 18.7281 11.095 18.4279 11.3293 17.1504C11.6604 15.3386 12.4753 13.2571 13.4889 11.6437C16.1679 7.37376 20.6908 4.58478 25.7179 4.10129C26.5481 4.02495 28.6414 4.08093 29.4563 4.20308Z" fill="#D9D9D9"/>
</g>
<path d="M9.736 51.528H6.58V51.156C6.996 51.156 7.304 51.088 7.504 50.952C7.696 50.824 7.792 50.624 7.792 50.352V43.536H3.604V50.352C3.604 50.616 3.696 50.816 3.88 50.952C4.088 51.088 4.396 51.156 4.804 51.156V51.528H1.66V51.156C2.092 51.156 2.412 51.084 2.62 50.94C2.756 50.804 2.824 50.604 2.824 50.34V44.256C2.824 43.968 2.756 43.776 2.62 43.68C2.524 43.624 2.396 43.588 2.236 43.572C2.076 43.548 1.884 43.536 1.66 43.536V43.14H9.736V43.536C9.248 43.536 8.928 43.584 8.776 43.68C8.624 43.776 8.548 43.968 8.548 44.256V50.34C8.548 50.612 8.624 50.812 8.776 50.94C8.952 51.084 9.272 51.156 9.736 51.156V51.528ZM16.1836 48.624C16.1836 49.52 15.9436 50.244 15.4636 50.796C14.9996 51.284 14.4316 51.528 13.7596 51.528C13.1356 51.528 12.6276 51.368 12.2356 51.048V52.272C12.2356 52.504 12.2996 52.664 12.4276 52.752C12.5636 52.84 12.7596 52.884 13.0156 52.884V53.28H10.7236V52.884C11.0596 52.884 11.2796 52.832 11.3836 52.728C11.4636 52.648 11.5036 52.496 11.5036 52.272V46.98C11.5036 46.94 11.4996 46.908 11.4916 46.884C11.4916 46.86 11.4876 46.836 11.4796 46.812C11.4716 46.772 11.4596 46.74 11.4436 46.716C11.4356 46.692 11.4236 46.668 11.4076 46.644C11.3196 46.564 11.1116 46.524 10.7836 46.524C10.7756 46.484 10.7676 46.444 10.7596 46.404C10.7516 46.356 10.7436 46.312 10.7356 46.272C10.9916 46.176 11.2436 46.084 11.4916 45.996C11.7396 45.908 11.9876 45.816 12.2356 45.72V46.212C12.6756 45.892 13.1956 45.732 13.7956 45.732C14.4996 45.732 15.0676 45.988 15.4996 46.5C15.5396 46.54 15.5756 46.576 15.6076 46.608C15.6396 46.64 15.6716 46.676 15.7036 46.716C16.0236 47.228 16.1836 47.864 16.1836 48.624ZM15.3796 48.636C15.3796 48.276 15.3316 47.956 15.2356 47.676C15.1476 47.388 15.0236 47.136 14.8636 46.92C14.5436 46.456 14.0996 46.224 13.5316 46.224C13.0116 46.224 12.5796 46.404 12.2356 46.764V50.448C12.5796 50.832 13.0116 51.024 13.5316 51.024C14.0436 51.024 14.4756 50.796 14.8276 50.34C15.1956 49.9 15.3796 49.332 15.3796 48.636ZM22.1414 48.672C22.1414 49.552 21.9054 50.276 21.4334 50.844C20.9614 51.412 20.3574 51.696 19.6214 51.696C18.8854 51.696 18.2814 51.412 17.8094 50.844C17.3374 50.276 17.1014 49.552 17.1014 48.672C17.1014 47.776 17.3374 47.044 17.8094 46.476C18.2734 45.924 18.8774 45.648 19.6214 45.648C20.3574 45.648 20.9614 45.924 21.4334 46.476C21.9054 47.044 22.1414 47.776 22.1414 48.672ZM21.3494 48.672C21.3494 47.92 21.1894 47.3 20.8694 46.812C20.5414 46.316 20.1254 46.068 19.6214 46.068C19.1094 46.068 18.6894 46.316 18.3614 46.812C18.0494 47.292 17.8934 47.912 17.8934 48.672C17.8934 49.416 18.0534 50.032 18.3734 50.52C18.7014 51.016 19.1174 51.264 19.6214 51.264C20.1334 51.264 20.5494 51.02 20.8694 50.532C21.0294 50.276 21.1494 50 21.2294 49.704C21.3094 49.4 21.3494 49.056 21.3494 48.672ZM30.4694 48.624C30.4694 49.576 30.2774 50.332 29.8934 50.892C29.5174 51.412 29.0014 51.672 28.3454 51.672C27.8414 51.672 27.4294 51.504 27.1094 51.168V52.2C27.1094 52.456 27.1574 52.624 27.2534 52.704C27.3894 52.808 27.6494 52.86 28.0334 52.86V53.232H25.5014V52.86C25.8854 52.86 26.1334 52.812 26.2454 52.716C26.3334 52.628 26.3774 52.456 26.3774 52.2V51.168C26.0494 51.504 25.6414 51.672 25.1534 51.672C24.5134 51.672 23.9934 51.412 23.5934 50.892V50.82C23.2174 50.252 23.0294 49.52 23.0294 48.624C23.0294 48.216 23.0694 47.84 23.1494 47.496C23.2294 47.152 23.3414 46.848 23.4854 46.584C23.6694 46.264 23.9014 46.02 24.1814 45.852C24.4614 45.684 24.7854 45.6 25.1534 45.6C25.6494 45.6 26.0574 45.76 26.3774 46.08V44.328C26.3774 44.16 26.3294 44.04 26.2334 43.968C26.1454 43.888 25.9454 43.848 25.6334 43.848L25.5614 43.56C25.8254 43.464 26.0854 43.372 26.3414 43.284C26.5974 43.188 26.8534 43.092 27.1094 42.996V46.08C27.4294 45.76 27.8414 45.6 28.3454 45.6C28.7134 45.6 29.0374 45.684 29.3174 45.852C29.5974 46.02 29.8294 46.264 30.0134 46.584C30.1574 46.848 30.2694 47.152 30.3494 47.496C30.4294 47.84 30.4694 48.216 30.4694 48.624ZM29.7014 48.636C29.7014 47.86 29.5894 47.252 29.3654 46.812C29.1254 46.308 28.7814 46.056 28.3334 46.056C28.1654 46.056 28.0294 46.072 27.9254 46.104C27.5414 46.232 27.2694 46.56 27.1094 47.088V50.16C27.3094 50.856 27.7214 51.204 28.3454 51.204C28.7774 51.204 29.1134 50.96 29.3534 50.472C29.5854 49.968 29.7014 49.356 29.7014 48.636ZM26.3774 47.088C26.1694 46.4 25.7654 46.056 25.1654 46.056C24.7174 46.056 24.3694 46.308 24.1214 46.812C23.9054 47.268 23.7974 47.876 23.7974 48.636C23.7974 49.356 23.9134 49.968 24.1454 50.472C24.3934 50.96 24.7334 51.204 25.1654 51.204C25.2454 51.204 25.3174 51.196 25.3814 51.18C25.4454 51.172 25.5094 51.16 25.5734 51.144C25.9574 51.024 26.2254 50.696 26.3774 50.16V47.088ZM38.0945 51.516H35.2505V51.156C35.6825 51.156 35.9785 51.064 36.1385 50.88C36.1785 50.816 36.2065 50.752 36.2225 50.688C36.2465 50.616 36.2585 50.524 36.2585 50.412V47.448C35.7465 47.928 35.2385 48.408 34.7345 48.888C34.2305 49.36 33.7225 49.836 33.2105 50.316V50.496C33.2105 50.648 33.2425 50.776 33.3065 50.88C33.4425 51.064 33.7425 51.156 34.2065 51.156V51.516H31.3625V51.156C31.7385 51.156 32.0185 51.1 32.2025 50.988C32.3705 50.884 32.4545 50.692 32.4545 50.412V46.824C32.4545 46.568 32.3745 46.392 32.2145 46.296C32.0545 46.192 31.7705 46.14 31.3625 46.14V45.78H34.2065V46.14C33.8705 46.14 33.6145 46.192 33.4385 46.296C33.2865 46.392 33.2105 46.568 33.2105 46.824V49.776C33.7225 49.296 34.2305 48.816 34.7345 48.336C35.2385 47.856 35.7465 47.376 36.2585 46.896V46.824C36.2585 46.568 36.1745 46.392 36.0065 46.296C35.8225 46.192 35.5705 46.14 35.2505 46.14V45.78H38.0945V46.14C37.8305 46.14 37.6185 46.164 37.4585 46.212C37.3065 46.252 37.1945 46.316 37.1225 46.404C37.0585 46.492 37.0265 46.632 37.0265 46.824V50.412C37.0265 50.7 37.1025 50.896 37.2545 51C37.4065 51.104 37.6865 51.156 38.0945 51.156V51.516ZM46.3103 51.528H43.1663V51.168C43.5743 51.168 43.8823 51.1 44.0903 50.964C44.2743 50.844 44.3663 50.652 44.3663 50.388V46.164H42.1463V49.212C42.1463 50.02 41.9903 50.628 41.6783 51.036C41.3503 51.492 40.8263 51.72 40.1063 51.72C39.7623 51.72 39.4903 51.648 39.2903 51.504C39.0663 51.352 38.9543 51.132 38.9543 50.844C38.9543 50.644 39.0103 50.488 39.1223 50.376C39.2423 50.256 39.3903 50.196 39.5663 50.196C39.9023 50.196 40.1063 50.36 40.1783 50.688C40.2343 50.864 40.3103 50.984 40.4063 51.048C40.5183 51.136 40.6383 51.18 40.7663 51.18C41.0943 51.18 41.3503 50.968 41.5343 50.544C41.6703 50.208 41.7383 49.86 41.7383 49.5V46.752C41.7383 46.528 41.6503 46.368 41.4743 46.272C41.3143 46.2 41.0103 46.164 40.5623 46.164V45.768H46.3103V46.164C45.8543 46.164 45.5303 46.212 45.3383 46.308C45.2023 46.404 45.1343 46.592 45.1343 46.872V50.376C45.1343 50.64 45.2023 50.832 45.3383 50.952C45.5383 51.096 45.8623 51.168 46.3103 51.168V51.528ZM53.1826 49.716C53.1826 50.388 52.8986 50.868 52.3306 51.156C51.9066 51.396 51.3226 51.516 50.5786 51.516H47.0866V51.108C47.5906 51.108 47.9226 51.064 48.0826 50.976C48.2426 50.84 48.3226 50.664 48.3226 50.448V46.836C48.3226 46.596 48.2626 46.428 48.1426 46.332C47.9826 46.22 47.6426 46.164 47.1226 46.164V45.78H50.3386V46.152C49.8346 46.152 49.4986 46.2 49.3306 46.296C49.1706 46.392 49.0906 46.572 49.0906 46.836V47.916H50.2906C50.3546 47.916 50.4186 47.92 50.4826 47.928C50.5546 47.928 50.6226 47.928 50.6866 47.928C51.3906 47.936 51.9466 48.052 52.3546 48.276C52.9066 48.58 53.1826 49.06 53.1826 49.716ZM52.4146 49.716C52.4146 49.276 52.2626 48.94 51.9586 48.708C51.7666 48.54 51.4986 48.436 51.1546 48.396C51.1146 48.388 51.0706 48.384 51.0226 48.384C50.9746 48.376 50.9306 48.372 50.8906 48.372H49.0906V50.52C49.0906 50.672 49.1186 50.788 49.1746 50.868C49.2946 51.02 49.5546 51.096 49.9546 51.096H50.5306C50.7306 51.096 50.9226 51.084 51.1066 51.06C51.4506 51.028 51.7306 50.928 51.9466 50.76C52.2586 50.52 52.4146 50.172 52.4146 49.716Z" fill="#D9D9D9"/>
<defs>
<filter id="filter0_d_20_167" x="0" y="0" width="48.38" height="48.38" filterUnits="userSpaceOnUse" color-interpolation-filters="sRGB">
<feFlood flood-opacity="0" result="BackgroundImageFix"/>
<feColorMatrix in="SourceAlpha" type="matrix" values="0 0 0 0 0 0 0 0 0 0 0 0 0 0 0 0 0 0 127 0" result="hardAlpha"/>
<feOffset dx="-3" dy="4"/>
<feGaussianBlur stdDeviation="2"/>
<feComposite in2="hardAlpha" operator="out"/>
<feColorMatrix type="matrix" values="0 0 0 0 0 0 0 0 0 0 0 0 0 0 0 0 0 0 0.25 0"/>
<feBlend mode="normal" in2="BackgroundImageFix" result="effect1_dropShadow_20_167"/>
<feBlend mode="normal" in="SourceGraphic" in2="effect1_dropShadow_20_167" result="shape"/>
</filter>
</defs>
</svg>
